<?xml version="1.0" encoding="utf-8"?><!-- Uploaded to: SVG Repo, www.svgrepo.com, Generator: SVG Repo Mixer Tools -->
<svg fill="current" width="current" height="current" viewBox="0 0 24 24" id="alpha" data-name="Flat Color" xmlns="http://www.w3.org/2000/svg" class="icon flat-color"><path id="primary" d="M21,20c-2.53,0-3.8-1.92-4.65-4.24C14.51,18.12,12.09,20,9.05,20c-2.59,0-4.51-.68-5.7-2a6.61,6.61,0,0,1-1.27-5.34C2.51,9,5.76,4,10.74,4c3.91,0,5.32,3.55,6.27,6.9a33.25,33.25,0,0,0,2-5.17A1,1,0,0,1,21,6.27a33.15,33.15,0,0,1-3.19,7.39C18.58,16.39,19.35,18,21,18a1,1,0,0,1,0,2ZM10.74,6C7,6,4.4,10.08,4.07,12.89a4.67,4.67,0,0,0,.78,3.77c.79.89,2.2,1.34,4.2,1.34,2.74,0,4.94-2.14,6.56-4.64-.06-.22-.12-.44-.17-.65C14.34,8.66,13.42,6,10.74,6Z"></path></svg>